<svg width="65" height="64" viewBox="0 0 65 64" fill="none" xmlns="http://www.w3.org/2000/svg">
<path fill-rule="evenodd" clip-rule="evenodd" d="M32.5 64C40.9869 64 49.1263 60.6286 55.1274 54.6274C61.1286 48.6263 64.5 40.4869 64.5 32C64.5 23.5131 61.1286 15.3737 55.1274 9.37258C49.1263 3.37142 40.9869 0 32.5 0C24.0131 0 15.8737 3.37142 9.87258 9.37258C3.87142 15.3737 0.5 23.5131 0.5 32C0.5 40.4869 3.87142 48.6263 9.87258 54.6274C15.8737 60.6286 24.0131 64 32.5 64ZM47.328 26.828C48.0566 26.0736 48.4598 25.0632 48.4507 24.0144C48.4416 22.9656 48.0209 21.9624 47.2793 21.2207C46.5376 20.4791 45.5344 20.0584 44.4856 20.0493C43.4368 20.0402 42.4264 20.4434 41.672 21.172L28.5 34.344L23.328 29.172C22.5736 28.4434 21.5632 28.0402 20.5144 28.0493C19.4656 28.0584 18.4624 28.4791 17.7207 29.2207C16.9791 29.9624 16.5584 30.9656 16.5493 32.0144C16.5402 33.0632 16.9434 34.0736 17.672 34.828L25.672 42.828C26.4221 43.5779 27.4393 43.9991 28.5 43.9991C29.5607 43.9991 30.5779 43.5779 31.328 42.828L47.328 26.828Z" fill="#00596C"/>
</svg>
