<svg width="16" height="17" viewBox="0 0 16 17" fill="none" xmlns="http://www.w3.org/2000/svg">
<g clip-path="url(#clip0_13738_2446)">
<path d="M14.2735 8.10634L8.38683 2.21967C8.14016 1.97301 7.80016 1.83301 7.44683 1.83301H2.66683C1.9335 1.83301 1.3335 2.43301 1.3335 3.16634V7.94634C1.3335 8.29967 1.4735 8.63967 1.72683 8.88634L7.6135 14.773C8.1335 15.293 8.98016 15.293 9.50016 14.773L14.2802 9.99301C14.8002 9.47301 14.8002 8.63301 14.2735 8.10634ZM8.5535 13.833L2.66683 7.94634V3.16634H7.44683L13.3335 9.05301L8.5535 13.833Z" fill="#646C80"/>
<path d="M4.3335 5.83301C4.88578 5.83301 5.3335 5.38529 5.3335 4.83301C5.3335 4.28072 4.88578 3.83301 4.3335 3.83301C3.78121 3.83301 3.3335 4.28072 3.3335 4.83301C3.3335 5.38529 3.78121 5.83301 4.3335 5.83301Z" fill="#646C80"/>
</g>
<defs>
<clipPath id="clip0_13738_2446">
<rect width="16" height="16" fill="white" transform="translate(0 0.5)"/>
</clipPath>
</defs>
</svg>
