<svg width="35" height="35" viewBox="0 0 35 35" fill="none" xmlns="http://www.w3.org/2000/svg">
<g clip-path="url(#clip0_148_3179)">
<path d="M21.875 30.625H18.9583V27.7083H21.875V30.625ZM18.9583 20.4167H16.0417V27.7083H18.9583V20.4167ZM30.625 17.5H27.7083V23.3333H30.625V17.5ZM27.7083 14.5833H24.7917V17.5H27.7083V14.5833ZM10.2083 17.5H7.29167V20.4167H10.2083V17.5ZM7.29167 14.5833H4.375V17.5H7.29167V14.5833ZM17.5 7.29167H20.4167V4.375H17.5V7.29167ZM6.5625 6.5625V10.9375H10.9375V6.5625H6.5625ZM13.125 13.125H4.375V4.375H13.125V13.125ZM6.5625 24.0625V28.4375H10.9375V24.0625H6.5625ZM13.125 30.625H4.375V21.875H13.125V30.625ZM24.0625 6.5625V10.9375H28.4375V6.5625H24.0625ZM30.625 13.125H21.875V4.375H30.625V13.125ZM27.7083 27.7083V23.3333H21.875V26.25H24.7917V30.625H30.625V27.7083H27.7083ZM24.7917 17.5H18.9583V20.4167H24.7917V17.5ZM18.9583 14.5833H10.2083V17.5H13.125V20.4167H16.0417V17.5H18.9583V14.5833ZM20.4167 13.125V10.2083H17.5V7.29167H14.5833V13.125H20.4167ZM9.84375 7.65625H7.65625V9.84375H9.84375V7.65625ZM9.84375 25.1562H7.65625V27.3438H9.84375V25.1562ZM27.3438 7.65625H25.1562V9.84375H27.3438V7.65625Z" fill="#336DF2"/>
</g>
<defs>
<clipPath id="clip0_148_3179">
<rect width="35" height="35" fill="white"/>
</clipPath>
</defs>
</svg>
