<svg width="36" height="35" viewBox="0 0 36 35" fill="none" xmlns="http://www.w3.org/2000/svg">
<g clip-path="url(#clip0_13738_1627)">
<path d="M22.125 30.625H19.2083V27.7083H22.125V30.625ZM19.2083 20.4167H16.2917V27.7083H19.2083V20.4167ZM30.875 17.5H27.9583V23.3333H30.875V17.5ZM27.9583 14.5833H25.0417V17.5H27.9583V14.5833ZM10.4583 17.5H7.54167V20.4167H10.4583V17.5ZM7.54167 14.5833H4.625V17.5H7.54167V14.5833ZM17.75 7.29167H20.6667V4.375H17.75V7.29167ZM6.8125 6.5625V10.9375H11.1875V6.5625H6.8125ZM13.375 13.125H4.625V4.375H13.375V13.125ZM6.8125 24.0625V28.4375H11.1875V24.0625H6.8125ZM13.375 30.625H4.625V21.875H13.375V30.625ZM24.3125 6.5625V10.9375H28.6875V6.5625H24.3125ZM30.875 13.125H22.125V4.375H30.875V13.125ZM27.9583 27.7083V23.3333H22.125V26.25H25.0417V30.625H30.875V27.7083H27.9583ZM25.0417 17.5H19.2083V20.4167H25.0417V17.5ZM19.2083 14.5833H10.4583V17.5H13.375V20.4167H16.2917V17.5H19.2083V14.5833ZM20.6667 13.125V10.2083H17.75V7.29167H14.8333V13.125H20.6667ZM10.0938 7.65625H7.90625V9.84375H10.0938V7.65625ZM10.0938 25.1562H7.90625V27.3438H10.0938V25.1562ZM27.5938 7.65625H25.4062V9.84375H27.5938V7.65625Z" fill="#B3B8C4"/>
</g>
<defs>
<clipPath id="clip0_13738_1627">
<rect width="35" height="35" fill="white" transform="translate(0.25)"/>
</clipPath>
</defs>
</svg>
